<?xml version="1.0" encoding="UTF-8" standalone="no"?>
<!-- Created with Inkscape (http://www.inkscape.org/) -->

<svg
   xmlns:dc="http://purl.org/dc/elements/1.1/"
   xmlns:cc="http://creativecommons.org/ns#"
   xmlns:rdf="http://www.w3.org/1999/02/22-rdf-syntax-ns#"
   xmlns:svg="http://www.w3.org/2000/svg"
   xmlns="http://www.w3.org/2000/svg"
   xmlns:sodipodi="http://sodipodi.sourceforge.net/DTD/sodipodi-0.dtd"
   xmlns:inkscape="http://www.inkscape.org/namespaces/inkscape"
   version="1.1"
   id="svg2"
   xml:space="preserve"
   viewBox="0 0 589.13202 159.96533"
   sodipodi:docname="ercole-pittogramma-logotipo.svg"
   inkscape:version="0.92.4 (5da689c313, 2019-01-14)"><metadata
     id="metadata8"><rdf:RDF><cc:Work
         rdf:about=""><dc:format>image/svg+xml</dc:format><dc:type
           rdf:resource="http://purl.org/dc/dcmitype/StillImage" /><dc:title></dc:title></cc:Work></rdf:RDF></metadata><defs
     id="defs6"><clipPath
       clipPathUnits="userSpaceOnUse"
       id="clipPath18"><path
         d="M 0,119.974 H 441.849 V 0 H 0 Z"
         id="path16"
         inkscape:connector-curvature="0" /></clipPath></defs><sodipodi:namedview
     pagecolor="#ffffff"
     bordercolor="#666666"
     borderopacity="1"
     objecttolerance="10"
     gridtolerance="10"
     guidetolerance="10"
     inkscape:pageopacity="0"
     inkscape:pageshadow="2"
     inkscape:window-width="1920"
     inkscape:window-height="1001"
     id="namedview4"
     showgrid="false"
     inkscape:zoom="0.77402006"
     inkscape:cx="294.56601"
     inkscape:cy="79.982666"
     inkscape:window-x="-9"
     inkscape:window-y="-9"
     inkscape:window-maximized="1"
     inkscape:current-layer="g10" /><g
     id="g10"
     inkscape:groupmode="layer"
     inkscape:label="ercole-svg-senza-payoff"
     transform="matrix(1.3333333,0,0,-1.3333333,0,159.96533)"><g
       id="g12"><g
         id="g14"
         clip-path="url(#clipPath18)"><g
           id="g20"
           transform="translate(44.702,101.0723)"><path
             d="m 0,0 c -22.755,0 -41.268,-18.512 -41.268,-41.268 0,-22.754 18.513,-41.267 41.268,-41.267 22.755,0 41.268,18.513 41.268,41.267 C 41.268,-18.512 22.755,0 0,0"
             style="fill:#f37731;fill-opacity:1;fill-rule:nonzero;stroke:none"
             id="path22"
             inkscape:connector-curvature="0" /></g><g
           id="g24"
           transform="translate(6.2001,74.5562)"><path
             d="m 0,0 c -4,0 -6.2,2 -6.2,5.6 0,3.5 2.3,5.8 6.2,5.6 2.6,-0.1 3.7,0.4 4,3.4 0.5,5.2 1.7,10.3 3.8,15.2 3.2,7.1 8.5,11.6 15.9,13.6 9.2,2.6 18.6,2.6 27.9,0.5 12.3,-2.7 18.1,-11.4 20.3,-23 0.5,-2.5 1,-5.1 1.2,-7.6 0.2,-1.6 0.8,-2.2 2.3,-2 0.6,0.1 1.2,0 1.9,0 3.8,-0.1 5.9,-2 5.9,-5.6 C 83.3,2.1 81.3,0 77.5,0 72.3,-0.1 12.7,0 0,0"
             style="fill:#000000;fill-opacity:1;fill-rule:nonzero;stroke:none"
             id="path26"
             inkscape:connector-curvature="0" /></g><g
           id="g28"
           transform="translate(19.1,91.6563)"><path
             d="m 0,0 c 1.2,1.4 1.6,3 1.8,4.5 0.7,4.8 3.3,8 7.8,9.9 0.7,0.3 1.3,0.6 1.9,1.1 1.7,1.4 4.4,2.7 2.9,5.3 -1.4,2.4 -4,0.8 -5.8,-0.1 C 1.7,17.3 -2,8.5 0,0"
             style="fill:#ffffff;fill-opacity:1;fill-rule:nonzero;stroke:none"
             id="path30"
             inkscape:connector-curvature="0" /></g><g
           id="g32"
           transform="translate(10.0936,72.0874)"><path
             d="m 0,0 c 0.369,-0.187 0.709,-0.211 1.035,-0.153 0.488,0.086 0.934,0.416 1.188,0.881 2.909,5.888 10.12,8.335 16.007,5.426 0.834,-0.441 1.783,-0.106 2.224,0.728 0.441,0.833 0.105,1.782 -0.728,2.223 C 12.185,12.814 3.063,9.778 -0.728,2.223 -1.169,1.39 -0.819,0.359 0,0"
             style="fill:#9c4d1e;fill-opacity:1;fill-rule:nonzero;stroke:none"
             id="path34"
             inkscape:connector-curvature="0" /></g><g
           id="g36"
           transform="translate(79.31,72.0874)"><path
             d="m 0,0 c -0.369,-0.187 -0.709,-0.211 -1.035,-0.153 -0.488,0.086 -0.934,0.416 -1.188,0.881 -2.909,5.888 -10.12,8.335 -16.007,5.426 -0.834,-0.441 -1.783,-0.106 -2.224,0.728 -0.441,0.833 -0.105,1.782 0.728,2.223 7.541,3.709 16.663,0.673 20.454,-6.882 C 1.169,1.39 0.819,0.359 0,0"
             style="fill:#9c4d1e;fill-opacity:1;fill-rule:nonzero;stroke:none"
             id="path38"
             inkscape:connector-curvature="0" /></g><g
           id="g40"
           transform="translate(82.6854,35.4385)"><path
             d="M 0,0 C 5.694,-7.018 -1.052,-12.844 -6.324,-11.105 -18.091,-6.986 -18.016,6.331 -28.46,6.331 h -0.107 C -31.592,6.283 -34.27,4.834 -35.983,2.615 v 5.396 c 7.442,0.11 13.498,6.223 13.498,13.691 v 1.423 c 0,2.567 -2.08,4.648 -4.648,4.648 h -21.701 c -2.568,0 -4.648,-2.081 -4.648,-4.648 v -1.423 c 0,-7.468 6.055,-13.58 13.499,-13.692 V 2.691 c -1.723,2.176 -4.379,3.59 -7.374,3.633 h -0.076 c -10.476,0 -10.368,-13.316 -22.135,-17.435 -5.273,-1.733 -12.026,4.093 -6.331,11.111 -10.192,-6.293 -8.957,-22.016 12.655,-22.016 5.564,0 9.932,0.628 13.363,1.557 v -3.082 c 0,-6.561 5.337,-11.897 11.898,-11.897 6.56,0 11.897,5.336 11.897,11.897 v 3.051 c 3.392,-0.912 7.713,-1.526 13.217,-1.526 C 8.743,-22.016 10.199,-6.293 0,0"
             style="fill:#000000;fill-opacity:1;fill-rule:nonzero;stroke:none"
             id="path42"
             inkscape:connector-curvature="0" /></g><g
           id="g44"
           transform="translate(22.9516,79.5117)"><path
             d="m 0,0 c -6.5,0 -11.7,-5.2 -11.7,-11.7 0,-6.5 5.2,-11.7 11.7,-11.7 6.5,0 11.7,5.2 11.7,11.7 C 11.7,-5.2 6.4,0 0,0"
             style="fill:#000000;fill-opacity:1;fill-rule:nonzero;stroke:none"
             id="path46"
             inkscape:connector-curvature="0" /></g><g
           id="g48"
           transform="translate(57.4516,65.4307)"><path
             d="M 0,0 1.9,0.9 10.2,4.8 18.5,0.9 20.4,0 c 0.1,-0.1 0.3,-0.1 0.4,-0.1 0.4,0 0.7,0.2 0.9,0.6 0.2,0.5 0,1.1 -0.5,1.3 L 10.1,7 -1,1.8 C -1.5,1.6 -1.7,1 -1.5,0.5 -1.1,-0.1 -0.6,-0.3 0,0"
             style="fill:#000000;fill-opacity:1;fill-rule:nonzero;stroke:none"
             id="path50"
             inkscape:connector-curvature="0" /></g><g
           id="g52"
           transform="translate(22.9516,58.1118)"><path
             d="m 0,0 c -5.3,0 -9.7,4.4 -9.7,9.7 0,5.3 4.4,9.7 9.7,9.7 C 5.3,19.4 9.7,15 9.7,9.7 9.7,4.4 5.3,0 0,0"
             style="fill:#9c4d1e;fill-opacity:1;fill-rule:nonzero;stroke:none"
             id="path54"
             inkscape:connector-curvature="0" /></g><g
           id="g56"
           transform="translate(22.9516,72.4121)"><path
             d="m 0,0 c -2.5,0 -4.6,-2.1 -4.6,-4.6 0,-2.5 2.1,-4.6 4.6,-4.6 2.5,0 4.6,2.1 4.6,4.6 C 4.6,-2.1 2.5,0 0,0"
             style="fill:#000000;fill-opacity:1;fill-rule:nonzero;stroke:none"
             id="path58"
             inkscape:connector-curvature="0" /></g><g
           id="g60"
           transform="translate(21.5517,68.812)"><path
             d="M 0,0 C -0.3,0 -0.6,0.3 -0.6,0.6 -0.6,0.9 -0.3,1.2 0,1.2 0.3,1.2 0.6,0.9 0.6,0.6 0.6,0.3 0.3,0 0,0"
             style="fill:#182033;fill-opacity:1;fill-rule:nonzero;stroke:none"
             id="path62"
             inkscape:connector-curvature="0" /></g><g
           id="g64"
           transform="translate(23.3519,65.9121)"><path
             d="M 0,0 C -0.7,0 -1.3,0.6 -1.3,1.3 -1.3,2 -0.7,2.6 0,2.6 0.7,2.6 1.3,2 1.3,1.3 1.3,0.6 0.8,0 0,0"
             style="fill:#182033;fill-opacity:1;fill-rule:nonzero;stroke:none"
             id="path66"
             inkscape:connector-curvature="0" /></g><g
           id="g68"
           transform="translate(52.599,11.8965)"><path
             d="m 0,0 c 0,-4.354 -3.543,-7.896 -7.897,-7.896 -4.354,0 -7.897,3.542 -7.897,7.896 v 6.476 c 2.302,1.284 4.302,3.034 5.897,5.114 V 0.304 c 0,-1.105 0.896,-2 2,-2 1.104,0 2,0.895 2,2 v 11.269 c 0.324,-0.423 0.666,-0.832 1.024,-1.226 0.039,-0.044 0.081,-0.085 0.12,-0.128 0.436,-0.472 0.892,-0.922 1.373,-1.349 0.015,-0.013 0.031,-0.025 0.046,-0.039 1,-0.878 2.094,-1.65 3.267,-2.305 C -0.044,6.514 -0.023,6.497 0,6.484 Z"
             style="fill:#f37731;fill-opacity:1;fill-rule:nonzero;stroke:none"
             id="path70"
             inkscape:connector-curvature="0" /></g><g
           id="g72"
           transform="translate(113.9423,14.5234)"><path
             d="M 0,0 H 39.802 V 7.1 H 7.4 v 15.901 h 27.802 v 6.4 H 7.4 v 33.402 h 32.402 v 7.101 H 0 Z"
             style="fill:#ffffff;fill-opacity:1;fill-rule:nonzero;stroke:none"
             id="path74"
             inkscape:connector-curvature="0" /></g><g
           id="g76"
           transform="translate(187.4423,40.625)"><path
             d="M 0,0 H -15.701 V 36.701 H 1 c 10.101,-1.299 14.4,-9 14.4,-18.1 C 15.4,9.4 9.9,0.6 0,0 M 22.602,17.9 C 22.602,33.102 14.2,43.402 1,43.803 v 0.099 h -14.102 -1.599 -8.101 v -70.004 h 7.101 v 18.901 h 13.4 2.401 l 13.3,-18.602 h 8.801 L 7.9,-5.801 c 1.201,0.5 1.701,0.7 1.701,0.7 C 18.001,-1 22.602,7.6 22.602,17.9"
             style="fill:#ffffff;fill-opacity:1;fill-rule:nonzero;stroke:none"
             id="path78"
             inkscape:connector-curvature="0" /></g><g
           id="g80"
           transform="translate(359.1483,84.4277)"><path
             d="m 0,0 h -7.301 v -69.904 h 3 6.501 30.102 v 7.599 l -32.302,0 z"
             style="fill:#ffffff;fill-opacity:1;fill-rule:nonzero;stroke:none"
             id="path82"
             inkscape:connector-curvature="0" /></g><g
           id="g84"
           transform="translate(441.8495,77.3262)"><path
             d="M 0,0 V 7.102 H -39.803 V -62.803 H 0 v 7.1 h -32.402 v 15.901 h 27.801 v 6.401 H -32.402 V 0 Z"
             style="fill:#ffffff;fill-opacity:1;fill-rule:nonzero;stroke:none"
             id="path86"
             inkscape:connector-curvature="0" /></g><path
           d="m 294.839,14.732 h 39.685 v 7.303 h -39.685 z"
           style="fill:#ffffff;fill-opacity:1;fill-rule:nonzero;stroke:none"
           id="path88"
           inkscape:connector-curvature="0" /><g
           id="g90"
           transform="translate(314.6815,36.3369)"><path
             d="m 0,0 c -11.604,0 -21.045,9.44 -21.045,21.044 0,11.604 9.441,21.044 21.045,21.044 11.604,0 21.044,-9.44 21.044,-21.044 C 21.044,9.44 11.604,0 0,0 m 0,49.391 c -15.656,0 -28.347,-12.692 -28.347,-28.347 0,-15.655 12.691,-28.347 28.347,-28.347 15.655,0 28.346,12.692 28.346,28.347 0,15.655 -12.691,28.347 -28.346,28.347"
             style="fill:#ffffff;fill-opacity:1;fill-rule:nonzero;stroke:none"
             id="path92"
             inkscape:connector-curvature="0" /></g><g
           id="g94"
           transform="translate(251.2411,20.4238)"><path
             d="m 0,0 c -12.5,0 -26.001,12.2 -26.001,29.201 0,13.401 10.5,29.201 26.001,29.201 8.9,0 17.901,-4.699 22.802,-11.7 l 6.301,3.401 C 22.502,59.203 12.101,65.304 0,65.304 -19.601,65.304 -33.502,49.103 -33.502,29.201 -33.502,9.3 -19.601,-7.001 0,-7.001 c 12.801,0 23.901,6.7 30.302,16.802 l -7.8,2.899 C 18.102,5.9 10.401,0 0,0"
             style="fill:#ffffff;fill-opacity:1;fill-rule:nonzero;stroke:none"
             id="path96"
             inkscape:connector-curvature="0" /></g></g></g></g></svg>